<?xml version="1.0" encoding="utf-8"?>
<!-- Generator: Adobe Illustrator 21.1.0, SVG Export Plug-In . SVG Version: 6.00 Build 0)  -->
<svg version="1.1" id="Layer_1" xmlns="http://www.w3.org/2000/svg" xmlns:xlink="http://www.w3.org/1999/xlink" x="0px" y="0px"
	 viewBox="0 0 515.8 176.8" style="enable-background:new 0 0 515.8 176.8;" xml:space="preserve">
<style type="text/css">
	.st0{fill:#00437B;}
</style>
<g>
	<path class="st0" d="M436,78l-2.3-0.8c-0.6-0.2-1-0.7-1.2-1.2l-0.8-2.3c-0.2-0.5-0.8-0.5-1,0l-0.8,2.3c-0.2,0.6-0.7,1-1.2,1.2
		l-2.3,0.8c-0.5,0.2-0.5,0.8,0,1l2.3,0.8c0.6,0.2,1,0.7,1.2,1.2l0.8,2.3c0.2,0.5,0.8,0.5,1,0l0.8-2.3c0.2-0.6,0.7-1,1.2-1.2L436,79
		C436.5,78.9,436.5,78.2,436,78z"/>
	<path class="st0" d="M459.2,74.2l-1.9-0.7c-0.5-0.2-0.8-0.5-1-1l-0.7-1.9c-0.1-0.4-0.7-0.4-0.8,0l-0.7,1.9c-0.2,0.5-0.5,0.8-1,1
		l-1.9,0.7c-0.4,0.1-0.4,0.7,0,0.8l1.9,0.7c0.5,0.2,0.8,0.5,1,1l0.7,1.9c0.1,0.4,0.7,0.4,0.8,0l0.7-1.9c0.2-0.5,0.5-0.8,1-1l1.9-0.7
		C459.6,74.9,459.6,74.4,459.2,74.2z"/>
	<path class="st0" d="M359,108.2l-2.5-0.9c-0.6-0.2-1.1-0.7-1.3-1.3l-0.9-2.5c-0.2-0.5-0.9-0.5-1.1,0l-0.9,2.5
		c-0.2,0.6-0.7,1.1-1.3,1.3l-2.5,0.9c-0.5,0.2-0.5,0.9,0,1.1l2.5,0.9c0.6,0.2,1.1,0.7,1.3,1.3l0.9,2.5c0.2,0.5,0.9,0.5,1.1,0
		l0.9-2.5c0.2-0.6,0.7-1.1,1.3-1.3l2.5-0.9C359.5,109.1,359.5,108.4,359,108.2z"/>
	<path class="st0" d="M408.6,76.5l-3.9-0.8c-1-0.2-1.7-1-2-2l-0.8-3.9c-0.2-0.9-1.4-0.9-1.6,0l-0.8,3.9c-0.2,1-1,1.7-2,2l-3.9,0.8
		c-0.9,0.2-0.9,1.4,0,1.6l3.9,0.8c1,0.2,1.7,1,2,2l0.8,3.9c0.2,0.8,1.4,0.8,1.6,0l0.8-3.9c0.2-1,1-1.7,2-2l3.9-0.8
		C409.5,77.9,409.5,76.7,408.6,76.5z"/>
	<path class="st0" d="M392,92.9c0.5-0.5,0-1.3-0.6-1.1l-4.4,1.3c-0.4,0.1-0.7-0.1-0.8-0.5l-1-4.5c-0.2-0.7-1.1-0.7-1.3,0l-1,4.5
		c-0.1,0.4-0.5,0.6-0.8,0.5l-4.4-1.3c-0.7-0.2-1.2,0.6-0.6,1.1l3.3,3.1c0.3,0.3,0.3,0.7,0,1l-3.3,3.1c-0.5,0.5,0,1.3,0.6,1.1
		l4.4-1.3c0.4-0.1,0.7,0.1,0.8,0.5l1,4.5c0.2,0.7,1.1,0.7,1.3,0l1-4.5c0.1-0.4,0.5-0.6,0.8-0.5l4.4,1.3c0.7,0.2,1.2-0.6,0.6-1.1
		l-3.3-3.1c-0.3-0.3-0.3-0.7,0-1L392,92.9z"/>
	<path class="st0" d="M366.6,81.7l10.1-1.2c0.8-0.1,0.8-1.2,0-1.3l-10.1-1.2c-0.4,0-0.7-0.5-0.5-0.9l1.6-3c0.3-0.6-0.4-1.4-1-1
		l-3,1.6c-0.4,0.2-0.8,0-0.9-0.5l-1.2-10.1c-0.1-0.8-1.2-0.8-1.3,0l-1.2,10.1c0,0.4-0.5,0.7-0.9,0.5l-3-1.6c-0.6-0.4-1.4,0.4-1,1
		l1.6,3c0.2,0.4,0,0.8-0.5,0.9l-10.1,1.2c-0.8,0.1-0.8,1.2,0,1.3l10.1,1.2c0.4,0,0.7,0.5,0.5,0.9l-1.6,3c-0.4,0.6,0.4,1.4,1,1l3-1.6
		c0.4-0.2,0.8,0,0.9,0.5l1.2,10.1c0.1,0.8,1.2,0.8,1.3,0l1.2-10.1c0-0.4,0.5-0.7,0.9-0.5l3,1.6c0.6,0.3,1.4-0.4,1-1l-1.6-3
		C365.9,82.2,366.1,81.8,366.6,81.7z"/>
	<circle class="st0" cx="481.5" cy="85" r="2.1"/>
	<circle class="st0" cx="412.9" cy="89.1" r="2.1"/>
	<circle class="st0" cx="379.4" cy="70.5" r="3.6"/>
	<path class="st0" d="M122.1,84.2l-2.4-0.9c-0.6-0.2-1.1-0.7-1.3-1.3l-0.9-2.4c-0.2-0.5-0.9-0.5-1,0l-0.9,2.4
		c-0.2,0.6-0.7,1.1-1.3,1.3l-2.4,0.9c-0.5,0.2-0.5,0.9,0,1.1l2.4,0.9c0.6,0.2,1.1,0.7,1.3,1.3l0.9,2.4c0.2,0.5,0.9,0.5,1,0l0.9-2.4
		c0.2-0.6,0.7-1.1,1.3-1.3l2.4-0.9C122.5,85.1,122.5,84.4,122.1,84.2z"/>
	<path class="st0" d="M55.4,76.2L53,75.4c-0.6-0.2-1.1-0.7-1.3-1.3l-0.9-2.4c-0.2-0.5-0.9-0.5-1,0l-0.9,2.4
		c-0.2,0.6-0.7,1.1-1.3,1.3l-2.4,0.9c-0.5,0.2-0.5,0.9,0,1.1l2.4,0.9c0.6,0.2,1.1,0.7,1.3,1.3l0.9,2.4c0.2,0.5,0.9,0.5,1,0l0.9-2.4
		c0.2-0.6,0.7-1.1,1.3-1.3l2.4-0.9C55.8,77.1,55.8,76.4,55.4,76.2z"/>
	<path class="st0" d="M88.3,76.2l-4.1-0.9c-1-0.2-1.8-1-2-2l-0.9-4.1c-0.2-0.9-1.5-0.9-1.6,0l-0.9,4.1c-0.2,1-1,1.8-2,2l-4.1,0.9
		c-0.9,0.2-0.9,1.5,0,1.6l4.1,0.9c1,0.2,1.8,1,2,2l0.9,4.1c0.2,0.9,1.5,0.9,1.6,0l0.9-4.1c0.2-1,1-1.8,2-2l4.1-0.9
		C89.2,77.6,89.2,76.4,88.3,76.2z"/>
	<path class="st0" d="M149,72l-4.1-0.9c-1-0.2-1.8-1-2-2l-0.9-4.1c-0.2-0.9-1.5-0.9-1.6,0l-0.9,4.1c-0.2,1-1,1.8-2,2l-4.1,0.9
		c-0.9,0.2-0.9,1.5,0,1.6l4.1,0.9c1,0.2,1.8,1,2,2l0.9,4.1c0.2,0.9,1.5,0.9,1.6,0l0.9-4.1c0.2-1,1-1.8,2-2l4.1-0.9
		C149.9,73.5,149.9,72.2,149,72z"/>
	<path class="st0" d="M107.8,92.3c0.7-0.6,0-1.7-0.8-1.5l-5.7,1.7c-0.5,0.1-1-0.1-1.1-0.6l-1.4-5.8c-0.2-0.9-1.5-0.9-1.7,0l-1.4,5.8
		c-0.1,0.5-0.6,0.8-1.1,0.6L89,90.8c-0.9-0.3-1.5,0.8-0.8,1.5l4.3,4.1c0.4,0.3,0.4,0.9,0,1.3l-4.3,4.1c-0.7,0.6,0,1.7,0.8,1.5
		l5.7-1.7c0.5-0.1,1,0.1,1.1,0.6l1.4,5.8c0.2,0.9,1.5,0.9,1.7,0l1.4-5.8c0.1-0.5,0.6-0.8,1.1-0.6l5.7,1.7c0.9,0.3,1.5-0.8,0.8-1.5
		l-4.3-4.1c-0.4-0.3-0.4-0.9,0-1.3L107.8,92.3z"/>
	<circle class="st0" cx="28.7" cy="69.7" r="2.2"/>
	<circle class="st0" cx="125.7" cy="68.2" r="2.2"/>
	<circle class="st0" cx="66.4" cy="90" r="3.2"/>
	<circle class="st0" cx="138.1" cy="96.2" r="3.7"/>
	<path class="st0" d="M228.1,97.4c3,3.2,6.6,5.2,10.1,6.4c0.4-5.5,0.3-7.4,0.4-10.2c-5.4,0.4-8.6,1.2-10,1.9
		C227,96.2,228.1,97.4,228.1,97.4z"/>
	<path class="st0" d="M302.5,50H192.5c-4.7,0-8.5,3.8-8.5,8.5v63.1c0,4.7,3.8,8.5,8.5,8.5h110.1c4.7,0,8.5-3.8,8.5-8.5V58.4
		C311,53.8,307.2,50,302.5,50z M270.7,96c-0.3,3.6-1.7,9.7-11.5,12.7c-6.5,2-12.6,1-16,0.2c-0.1,1.3-0.2,1.9-0.4,2.1
		c-0.3,0.3-2.4,1.5-3.6-0.2c-0.5-0.8-0.8-2.3-0.9-3.6c-7.5-3.5-11-8.5-11.1-8.7c-0.2-0.2-1.9-2-0.2-4.2c1.6-2,6.9-4,11.6-4.8
		c0.2-4.1,0.6-7.1,1.2-8.5c0.7-1.6,1.5-0.2,2.3,0.9c0.6,0.8,1,4.4,1,7.2c3.1-0.1,4.9,0.1,8.4,0.7c4.5,0.8,7.5,3.1,7.3,5.7
		c-0.2,2.6-2.6,3.6-3.4,3.7c-0.9,0.1-2.4-0.6-2.4-0.6c-1-0.5-0.1-0.9,1.1-1.4c1.3-0.6,1-1.3,1-1.3c-0.5-1.4-6.3-2.4-12.2-2.4
		c0,3.2,0.1,8.5,0.2,11.6c4.1,0.8,7.1,0.6,7.1,0.6s14.9-0.4,15.3-9.9c0.5-9.5-14.8-18.6-26.1-21.5c-11.3-3-17.7-0.9-18.2-0.6
		c-0.6,0.3,0,0.4,0,0.4s0.6,0.1,1.7,0.5c1.1,0.4,0.2,0.9,0.2,0.9c-1.9,0.6-4.1,0.2-4.5-0.6c-0.4-0.9,0.3-1.7,1.1-2.8
		c0.8-1.2,1.7-1.2,1.7-1.2c14-4.8,31,3.9,31,3.9C268.3,82.8,271,92.3,270.7,96z"/>
</g>
</svg>
