<?xml version="1.0" encoding="utf-8"?>
<!-- Generator: Adobe Illustrator 21.1.0, SVG Export Plug-In . SVG Version: 6.00 Build 0)  -->
<svg version="1.1" id="Layer_1" xmlns="http://www.w3.org/2000/svg" xmlns:xlink="http://www.w3.org/1999/xlink" x="0px" y="0px"
	 viewBox="0 0 163.6 168.1" style="enable-background:new 0 0 163.6 168.1;" xml:space="preserve">
<style type="text/css">
	.st0{fill:#00437B;}
</style>
<g>
	<path class="st0" d="M154.6,38.1c0-14-11.4-25.4-25.4-25.4c-13.7,0-24.8,10.8-25.3,24.4c-5.2-2.2-10.8-3.6-16.6-4.1
		c0-0.1,0.1-0.2,0.1-0.3c0-3-2.4-5.4-5.4-5.4s-5.4,2.4-5.4,5.4c0,0.1,0,0.2,0.1,0.3c-6.1,0.6-11.8,2.1-17.2,4.3
		C59,23.6,47.8,12.7,34.1,12.7c-14,0-25.4,11.4-25.4,25.4c0,13.1,9.9,23.9,22.7,25.2c-4.2,7.9-6.5,16.9-6.5,26.5
		c0,16.4,7,31.2,18.1,41.6l-6.7,6.7c-2,2-2,5.3,0,7.3c2,2,5.3,2,7.3,0l6.7-6.7c0.3-0.3,0.4-0.6,0.6-0.9c8.9,5.8,19.6,9.2,31,9.2
		s22.1-3.4,31-9.2c0.2,0.3,0.3,0.7,0.6,0.9l6.7,6.7c2,2,5.3,2,7.3,0c2-2,2-5.3,0-7.3l-6.7-6.7c11.1-10.4,18.1-25.2,18.1-41.6
		c0-9.6-2.4-18.7-6.6-26.6C145,61.6,154.6,51,154.6,38.1z M81.9,133.3c-24,0-43.5-19.5-43.5-43.5c0-24,19.5-43.5,43.5-43.5
		s43.5,19.5,43.5,43.5C125.4,113.8,106,133.3,81.9,133.3z"/>
	<path class="st0" d="M106.7,87.8h-21v-28c0-2.1-1.7-3.8-3.8-3.8c-2.1,0-3.8,1.7-3.8,3.8v31.7c0,2.1,1.7,3.8,3.8,3.8h24.7
		c2.1,0,3.8-1.7,3.8-3.8C110.4,89.5,108.7,87.8,106.7,87.8z"/>
</g>
</svg>
