<?xml version="1.0" encoding="utf-8"?>
<!-- Generator: Adobe Illustrator 21.1.0, SVG Export Plug-In . SVG Version: 6.00 Build 0)  -->
<svg version="1.1" id="Layer_1" xmlns="http://www.w3.org/2000/svg" xmlns:xlink="http://www.w3.org/1999/xlink" x="0px" y="0px"
	 viewBox="0 0 110.5 120.5" style="enable-background:new 0 0 110.5 120.5;" xml:space="preserve">
<style type="text/css">
	.st0{fill:#00437B;}
</style>
<g>
	<path class="st0" d="M25.2,98.8c0,5.1,0,10.3,0,15.4c0,1.9,0,3.8,0,5.8c0,0.1,0,0.2,0,0.3c0,0.2-0.1,0.2-0.2,0.2
		c-0.1,0-0.2,0-0.3,0c-7.2,0-14.3,0-21.5,0c-0.1,0-0.2,0-0.3,0c-0.1,0-0.2-0.1-0.2-0.2c0-0.1,0-0.2,0-0.3c0-3,0-5.9,0-8.9
		c0-3.5,0-6.9,0-10.4c0-2.9,0-5.7,0-8.6c0-3.4,0-6.9,0-10.3c0-1.4,0-2.7,0-4.1c0-0.1,0-0.3,0-0.4c0-0.2-0.1-0.3-0.3-0.3
		c-0.1,0-0.2,0-0.3,0c-0.6,0-1.1,0-1.7,0c-0.1,0-0.1,0-0.2,0c-0.2,0-0.2-0.1-0.2-0.3c0-0.1,0-0.1,0-0.2c0-1.2,0-2.4,0-3.6
		c0-0.5,0-0.5,0.5-0.5c3.7,0,7.4,0,11.1,0c5.3,0,10.5,0,15.8,0c0.4,0,0.5,0,0.5,0.5c0,1.2,0,2.5,0,3.7c0,0.4,0,0.4-0.4,0.4
		c-0.6,0-1.1,0-1.7,0c-0.4,0-0.5,0.1-0.5,0.5c0,1.2,0,2.4,0,3.6c0,3,0,5.9,0,8.9C25.2,92.9,25.2,95.8,25.2,98.8L25.2,98.8z
		 M13.9,94.8L13.9,94.8c1.3,0,2.5,0,3.8,0c0,0,0.1,0,0.1,0c0.3,0,0.4-0.1,0.4-0.4c0-0.2,0-0.3,0-0.5c0-1.8,0-3.5,0-5.3
		c0-0.3,0-0.7-0.1-1c0-0.1,0-0.2-0.1-0.3c-0.1-0.3-0.2-0.7-0.4-1c-0.4-0.7-0.9-1.2-1.5-1.6c-0.4-0.2-0.8-0.4-1.2-0.5
		c-0.9-0.2-1.7-0.2-2.5,0.1c-0.4,0.1-0.7,0.3-1,0.5c-0.6,0.5-1.1,1-1.5,1.8c-0.2,0.5-0.4,1.1-0.4,1.7c0,2,0,4,0,6c0,0,0,0.1,0,0.1
		c0,0.3,0.1,0.4,0.4,0.4c0.1,0,0.2,0,0.3,0C11.5,94.8,12.7,94.8,13.9,94.8z"/>
	<path class="st0" d="M107.2,98.6c0,4.8,0,9.7,0,14.5c0,2.3,0,4.5,0,6.8c0,0.4,0,0.4-0.4,0.4c-2.4,0-4.8,0-7.2,0
		c-4.7,0-9.5,0-14.2,0c-0.1,0-0.3,0-0.4,0c-0.1,0-0.2-0.1-0.2-0.2c0-0.1,0-0.2,0-0.3c0-3.7,0-7.5,0-11.2c0-2.7,0-5.5,0-8.2
		c0-3.6,0-7.2,0-10.7c0-2.8,0-5.6,0-8.4c0-1.3,0-2.6,0-3.9c0-0.1,0-0.2,0-0.4c0-0.2-0.1-0.3-0.3-0.3c-0.1,0-0.1,0-0.2,0
		c-0.6,0-1.1,0-1.7,0c-0.4,0-0.4-0.1-0.4-0.4c0-1.2,0-2.4,0-3.5c0-0.1,0-0.2,0-0.3c0-0.2,0.1-0.2,0.2-0.2c0.1,0,0.3,0,0.4,0
		c1.3,0,2.5,0,3.8,0c3.5,0,7.1,0,10.6,0c3.2,0,6.5,0,9.7,0c0.9,0,1.8,0,2.6,0c0.4,0,0.5,0,0.5,0.5c0,1.2,0,2.4,0,3.6
		c0,0,0,0.1,0,0.1c0,0.2-0.1,0.2-0.2,0.3c-0.1,0-0.2,0-0.3,0c-0.6,0-1.1,0-1.7,0c-0.3,0-0.4,0.1-0.4,0.4c0,0.1,0,0.3,0,0.4
		c0,4.3,0,8.7,0,13C107.2,93.2,107.2,95.9,107.2,98.6L107.2,98.6z M95.9,94.8L95.9,94.8c1.3,0,2.5,0,3.8,0c0.1,0,0.2,0,0.3,0
		c0.2,0,0.2-0.1,0.3-0.3c0-0.1,0-0.3,0-0.4c0-1.8,0-3.5,0-5.3c0-0.4,0-0.8-0.1-1.2c0-0.1,0-0.2,0-0.3c-0.1-0.4-0.2-0.7-0.4-1.1
		c-0.5-0.8-1.1-1.4-1.9-1.8c-0.3-0.1-0.6-0.2-0.9-0.3c-0.5-0.2-1.1-0.2-1.6-0.1c-0.6,0.1-1.2,0.3-1.7,0.6c-0.5,0.4-1,0.8-1.3,1.3
		c-0.2,0.4-0.4,0.8-0.5,1.2c-0.1,0.3-0.2,0.6-0.2,1c0,2,0,4,0,6c0,0.1,0,0.2,0,0.3c0,0.1,0.1,0.2,0.2,0.2c0.1,0,0.2,0,0.4,0
		C93.4,94.8,94.7,94.8,95.9,94.8z"/>
	<path class="st0" d="M54.7,93.2c5.3,0,10.6,0,15.8,0c3.1,0,6.2,0,9.3,0c0.1,0,0.2,0,0.3,0c0.3,0,0.3,0.1,0.3,0.3c0,0.1,0,0.1,0,0.1
		c0,3.1,0,6.1,0,9.1c0,2.9,0,5.7,0,8.6c0,2.9,0,5.7,0,8.6c0,0.1,0,0.1,0,0.2c0,0.1-0.1,0.2-0.2,0.2c-0.1,0-0.2,0-0.3,0
		c-4.8,0-9.6,0-14.4,0c-0.1,0-0.2,0-0.3,0c-0.1,0-0.2-0.1-0.2-0.2c0-0.7,0-1.5,0-2.2c0-0.1,0-0.1,0-0.2c0-0.6,0-1.2,0-1.9
		c0-0.9,0-1.9,0-2.8c0-0.9,0-1.9,0-2.8c0-0.2,0-0.4-0.1-0.5c0-0.3-0.1-0.6-0.1-0.8c0,0,0-0.1,0-0.1c-0.1-0.4-0.2-0.7-0.3-1.1
		c-0.1-0.2-0.1-0.4-0.2-0.6c-0.3-0.8-0.7-1.5-1.2-2.2c-0.8-1.1-1.8-2-2.9-2.7c-0.5-0.3-1.1-0.6-1.7-0.8c-0.1,0-0.1-0.1-0.2-0.1
		c-0.1,0-0.1-0.1-0.2-0.1c-0.3,0-0.6-0.2-0.8-0.2c-0.3-0.1-0.6-0.1-0.9-0.2c-0.2,0-0.3-0.1-0.5-0.1c-0.8-0.1-1.7-0.1-2.5,0
		c-0.2,0-0.4,0.1-0.7,0.1c-0.1,0-0.3,0.1-0.4,0.1c-0.2,0-0.4,0.1-0.6,0.2c-0.1,0-0.2,0.1-0.4,0.1c-0.1,0-0.2,0.1-0.3,0.1
		c-0.1,0-0.1,0.1-0.2,0.1c-0.5,0.1-1,0.4-1.4,0.7c-0.9,0.5-1.7,1.2-2.5,2c-0.6,0.6-1.1,1.3-1.5,2.1c-0.2,0.4-0.4,0.9-0.6,1.4
		c-0.1,0.4-0.3,0.8-0.3,1.2c0,0.1,0,0.1,0,0.2c-0.2,0.6-0.2,1.3-0.2,1.9c0,3.1,0,6.3,0,9.4l0,0.1c0,0.2-0.1,0.3-0.3,0.3
		c-0.1,0-0.2,0-0.3,0c-4.7,0-9.4,0-14.2,0c-0.2,0-0.3,0-0.5,0c-0.1,0-0.2-0.1-0.2-0.2c0-0.1,0-0.1,0-0.2c0-5.5,0-11,0-16.4
		c0-3.1,0-6.3,0-9.4c0-0.2,0-0.4,0-0.6c0-0.2,0.1-0.3,0.2-0.3c0.1,0,0.2,0,0.3,0c4.5,0,8.9,0,13.4,0c2.8,0,5.6,0,8.5,0
		C52.4,93.2,53.6,93.2,54.7,93.2z M36.4,99.7L36.4,99.7c-0.8,0-1.5,0-2.3,0c-0.4,0-0.5,0.1-0.5,0.5c0,1.5,0,2.9,0,4.4
		c0,0.1,0,0.2,0,0.3c0,0.2,0.1,0.3,0.3,0.3c0.1,0,0.2,0,0.3,0c1.4,0,2.8,0,4.3,0c0.1,0,0.2,0,0.3,0c0.2,0,0.3-0.1,0.3-0.3
		c0-0.1,0-0.2,0-0.3c0-1.5,0-2.9,0-4.4c0-0.5,0-0.5-0.5-0.5C37.8,99.7,37.1,99.7,36.4,99.7z M72.6,99.7L72.6,99.7
		c-0.7,0-1.4,0-2.1,0c-0.1,0-0.2,0-0.4,0c-0.2,0-0.3,0.1-0.3,0.3c0,0.1,0,0.2,0,0.3c0,1.4,0,2.9,0,4.3c0,0.1,0,0.1,0,0.2
		c0,0.2,0.1,0.3,0.4,0.4c0.1,0,0.2,0,0.3,0c1.4,0,2.9,0,4.3,0c0.1,0,0.2,0,0.3,0c0.1,0,0.2-0.1,0.3-0.2c0-0.1,0-0.3,0-0.4
		c0-1.4,0-2.8,0-4.3c0-0.1,0-0.2,0-0.3c0-0.2-0.1-0.3-0.3-0.3c0,0-0.1,0-0.1,0C74.1,99.7,73.4,99.7,72.6,99.7z"/>
	<path class="st0" d="M54.6,78.1c-3.3,0-6.5,0-9.8,0c-1,0-2.1,0-3.1,0c-0.4,0-0.5,0-0.5-0.4c0-4.9,0-9.9,0-14.8c0-3.1,0-6.2,0-9.3
		c0-0.1,0-0.2,0-0.4c0-0.2-0.1-0.3-0.3-0.3c-0.1,0-0.2,0-0.4,0c-1.1,0-2.3,0-3.4,0c-0.1,0-0.2,0-0.4,0c-0.1,0-0.2-0.1-0.2-0.2
		c0-0.1,0-0.1,0-0.2c0-2,0-4,0-6.1l0-0.1c0-0.2,0.1-0.3,0.3-0.3c0.9,0,1.7,0,2.6,0c0,0,0.1,0,0.1,0c0.1,0,0.1,0.1,0.1,0.1
		c0,0.1,0,0.1,0,0.2c0,0.5,0,1,0,1.5c0,0.4,0.1,0.5,0.5,0.5c0.8,0,1.6,0,2.4,0c0.1,0,0.1,0,0.2,0c0.1,0,0.2-0.1,0.2-0.2
		c0-0.1,0-0.2,0-0.3c0-0.5,0-0.9,0-1.4c0,0,0-0.1,0-0.1c0-0.2,0.1-0.3,0.3-0.3c0,0,0.1,0,0.1,0c0.8,0,1.6,0,2.4,0c0,0,0,0,0.1,0
		c0.3,0,0.3,0.1,0.3,0.4c0,0.6,0,1.1,0,1.7c0,0.3,0.1,0.3,0.3,0.4c0.1,0,0.1,0,0.2,0c0.8,0,1.6,0,2.4,0c0.1,0,0.2,0,0.3,0
		c0.2,0,0.3-0.1,0.3-0.3c0-0.1,0-0.2,0-0.3c0-0.5,0-0.9,0-1.4c0-0.3,0.1-0.4,0.4-0.4c0.8,0,1.6,0,2.4,0c0,0,0.1,0,0.1,0
		c0.2,0,0.2,0.1,0.2,0.2c0,0.1,0,0.2,0,0.3c0,0.4,0,0.9,0,1.3c0,0.1,0,0.2,0,0.3c0,0.2,0.1,0.3,0.3,0.3c0.1,0,0.2,0,0.3,0
		c0.8,0,1.6,0,2.4,0c0.1,0,0.2,0,0.3,0c0.2,0,0.3-0.1,0.3-0.3c0-0.1,0-0.2,0-0.3c0-0.4,0-0.8,0-1.3c0-0.1,0-0.1,0-0.2
		c0-0.3,0.1-0.3,0.4-0.3c0.6,0,1.2,0,1.8,0c0.2,0,0.5,0,0.7,0c0.2,0,0.3,0.1,0.3,0.3c0,0.5,0,1,0,1.5c0,0.1,0,0.2,0,0.3
		c0,0.2,0.1,0.3,0.3,0.3c0.1,0,0.2,0,0.3,0c0.8,0,1.5,0,2.3,0c0.5,0,0.6-0.1,0.6-0.6c0-0.4,0-0.9,0-1.3c0,0,0-0.1,0-0.1
		c0-0.4,0-0.4,0.4-0.4c0.3,0,0.6,0,1,0c0.5,0,0.9,0,1.4,0c0.1,0,0.2,0,0.3,0c0.1,0,0.2,0.1,0.2,0.2c0,0.1,0,0.2,0,0.3
		c0,0.5,0,1,0,1.4c0,0.4,0.1,0.5,0.5,0.5c0.8,0,1.7,0,2.5,0c0.5,0,0.5-0.1,0.5-0.5c0-0.5,0-0.9,0-1.4c0-0.1,0-0.1,0-0.2
		c0-0.2,0.1-0.3,0.3-0.3c0,0,0.1,0,0.1,0c0.7,0,1.4,0,2.2,0c0.4,0,0.5,0,0.5,0.5c0,1.9,0,3.9,0,5.8c0,0.1,0,0.2,0,0.3
		c0,0.2-0.1,0.2-0.3,0.3c-0.1,0-0.2,0-0.3,0c-1.2,0-2.3,0-3.5,0c-0.1,0-0.2,0-0.3,0c-0.2,0-0.3,0.1-0.3,0.4c0,0.1,0,0.1,0,0.2
		c0,3.2,0,6.4,0,9.7c0,2.8,0,5.6,0,8.4c0,2,0,4,0,6.1c0,0.1,0,0.2,0,0.3c0,0.1-0.1,0.2-0.2,0.2c-0.1,0-0.2,0-0.3,0
		c-2.7,0-5.4,0-8.1,0C57.8,78.1,56.2,78.1,54.6,78.1L54.6,78.1z M54.7,68.6L54.7,68.6c1.2,0,2.4,0,3.6,0c0.1,0,0.2,0,0.3,0
		c0.2,0,0.3-0.1,0.3-0.3c0-0.1,0-0.2,0-0.4c0-1.8,0-3.6,0-5.4c0-0.7-0.1-1.4-0.4-2c-0.3-0.6-0.7-1.1-1.2-1.5
		c-0.5-0.4-1.1-0.7-1.8-0.9c-0.1,0-0.2,0-0.3,0c-0.7,0-1.4-0.1-2.1,0.2c-0.4,0.2-0.9,0.4-1.2,0.7c-0.7,0.5-1.2,1.2-1.5,2
		c-0.2,0.5-0.3,1-0.1,1.5c0,0.1,0,0.1,0,0.2c0,1.3,0,2.5,0,3.8c0,0.3,0,0.6,0,0.9c0,0.3,0,0.5,0,0.8c0,0.1,0,0.1,0,0.2
		c0,0.2,0.1,0.3,0.3,0.3c0.1,0,0.2,0,0.3,0C52.2,68.6,53.4,68.6,54.7,68.6z"/>
	<path class="st0" d="M54.5,43.6c-3.1,0-6.3,0-9.4,0c-1.3,0-2.7,0-4,0c-0.1,0-0.2,0-0.3,0c-0.1,0-0.2-0.1-0.1-0.2
		c0-0.1,0-0.1,0.1-0.2c0.2-0.4,0.4-0.8,0.6-1.2c0.2-0.5,0.4-1,0.6-1.4c0.2-0.4,0.4-0.8,0.6-1.3c0.1-0.3,0.2-0.5,0.3-0.8
		c0.1-0.2,0.2-0.3,0.2-0.5c0.2-0.5,0.4-1,0.6-1.4c0.2-0.4,0.4-0.8,0.5-1.2c0.2-0.5,0.4-0.9,0.6-1.4c0.2-0.4,0.4-0.9,0.6-1.3
		c0.2-0.4,0.4-0.8,0.6-1.3c0.2-0.4,0.4-0.9,0.6-1.3c0.2-0.4,0.4-0.9,0.6-1.3c0.2-0.5,0.4-0.9,0.6-1.4c0.2-0.4,0.4-0.9,0.6-1.3
		c0.2-0.4,0.4-0.9,0.6-1.3c0.2-0.4,0.4-0.8,0.6-1.3c0.1-0.3,0.3-0.6,0.4-0.8c0.2-0.5,0.4-0.9,0.6-1.4c0.2-0.4,0.4-0.9,0.6-1.3
		c0.2-0.4,0.4-0.8,0.6-1.2c0.2-0.5,0.4-0.9,0.6-1.4c0.1-0.2,0.2-0.4,0.3-0.6c0.4-0.8,0.7-1.6,1.1-2.4c0.1-0.3,0.2-0.6,0.2-0.9
		c0-2,0-4.1,0-6.1c0-2,0-4,0-6c0-0.2,0-0.5,0-0.7c0-0.2,0.1-0.3,0.3-0.3c0.2,0,0.5,0,0.7,0c0.2,0,0.2,0.1,0.2,0.2c0,0.2,0,0.5,0,0.7
		c0,1.4,0,2.8,0,4.2c0,1.2,0,2.4,0,3.6c0,1.4,0,2.9,0,4.3c0,0.1,0,0.3,0,0.4c0,0.1,0,0.2,0.1,0.3c0.1,0.2,0.2,0.4,0.3,0.6
		c0,0.1,0.1,0.2,0.1,0.3c0,0.1,0,0.1,0.1,0.2c0.3,0.5,0.5,1,0.7,1.5c0.2,0.4,0.3,0.8,0.5,1.1c0.1,0.3,0.2,0.5,0.4,0.8
		c0.3,0.7,0.6,1.3,0.9,2c0.2,0.4,0.4,0.9,0.6,1.3c0.2,0.4,0.4,0.8,0.5,1.2c0.3,0.6,0.6,1.3,0.9,1.9c0.2,0.4,0.4,0.9,0.6,1.3
		c0.2,0.4,0.4,0.9,0.6,1.3c0.2,0.4,0.4,0.8,0.6,1.3c0.2,0.4,0.4,0.8,0.5,1.2c0.1,0.3,0.3,0.6,0.4,0.9c0.1,0.3,0.2,0.6,0.4,0.8
		c0.1,0.2,0.2,0.4,0.3,0.6c0.3,0.6,0.6,1.2,0.8,1.8c0.2,0.4,0.4,0.8,0.5,1.2c0.1,0.3,0.3,0.6,0.4,0.9c0.2,0.4,0.4,0.9,0.6,1.3
		c0.2,0.4,0.3,0.8,0.5,1.2c0.1,0.2,0.2,0.5,0.3,0.7c0.2,0.5,0.5,1,0.7,1.5c0.2,0.4,0.4,0.9,0.6,1.3c0.1,0.3,0.3,0.6,0.4,0.8
		c0,0,0,0.1,0.1,0.1c0.1,0.2,0,0.3-0.2,0.3c-0.1,0-0.2,0-0.3,0c-4,0-7.9,0-11.9,0C55.5,43.6,55,43.6,54.5,43.6L54.5,43.6z"/>
	<path class="st0" d="M54.7,81.8c1.3,0,2.7,0,4,0c0.9,0,1.8,0,2.7,0c0.8,0,1.6,0,2.4,0c1.2,0,2.4,0,3.5,0c1.6,0,3.3,0,4.9,0
		c1.5,0,2.9,0,4.4,0c0.4,0,0.7,0,1.1,0c0.8,0,1.6,0,2.4,0c0,0,0.1,0,0.1,0c0.1,0,0.2,0.1,0.2,0.2c0,0.1,0,0.2,0,0.3
		c0,2.2,0,4.5,0,6.7c0,0.5,0,0.5-0.5,0.5c-2.8,0-5.6,0-8.3,0c-3.5,0-7,0-10.6,0c-4.8,0-9.6,0-14.3,0c-3.1,0-6.2,0-9.3,0
		c-2.6,0-5.3,0-7.9,0c-0.1,0-0.1,0-0.2,0c-0.2,0-0.3-0.1-0.3-0.3c0-0.1,0-0.2,0-0.3c0-2.2,0-4.4,0-6.5c0-0.1,0-0.1,0-0.2
		c0-0.2,0.1-0.3,0.3-0.3c0.6,0,1.3,0,1.9,0c0.3,0,0.5,0,0.8,0c1.1,0,2.2,0,3.3,0c1.2,0,2.3,0,3.5,0c1.7,0,3.4,0,5.1,0
		c1.6,0,3.1,0,4.7,0c1.6,0,3.2,0,4.8,0C53.8,81.8,54.2,81.8,54.7,81.8L54.7,81.8z"/>
	<path class="st0" d="M95.8,52.8c-1.3,0-2.7,0-4,0c-1.2,0-2.4,0-3.6,0c-0.6,0-1.2,0-1.9,0c-0.1,0-0.2,0-0.3,0
		c-0.2,0-0.2-0.1-0.1-0.3c0.1-0.4,0.3-0.7,0.4-1.1c0.1-0.3,0.2-0.6,0.4-1c0.1-0.2,0.2-0.5,0.3-0.7c0.1-0.3,0.2-0.6,0.3-0.9
		c0.1-0.3,0.2-0.6,0.3-0.9c0.1-0.4,0.3-0.8,0.4-1.2c0.1-0.3,0.2-0.6,0.4-1c0.1-0.3,0.2-0.6,0.3-0.9c0.1-0.3,0.2-0.6,0.3-1
		c0.1-0.3,0.2-0.6,0.3-0.9c0.1-0.3,0.2-0.5,0.3-0.8c0.1-0.4,0.3-0.8,0.4-1.2c0.1-0.3,0.2-0.6,0.3-0.9c0.1-0.3,0.3-0.7,0.4-1
		c0.1-0.2,0.2-0.4,0.2-0.7c0.1-0.3,0.2-0.6,0.3-1c0.1-0.3,0.2-0.6,0.3-0.9c0.1-0.4,0.3-0.8,0.4-1.1c0.1-0.3,0.2-0.6,0.3-0.8
		c0.1-0.4,0.3-0.8,0.4-1.2c0.2-0.5,0.4-1.1,0.6-1.6c0.1-0.3,0.2-0.6,0.3-1c0-0.1,0.1-0.2,0.1-0.2c0-0.1,0.1-0.3,0.1-0.4
		c0-0.1,0.1-0.2,0.1-0.2c0-0.1,0.1-0.1,0.1-0.2c0-0.3,0.2-0.6,0.3-0.9c0.1-0.3,0.2-0.7,0.4-1c0.1-0.3,0.2-0.7,0.3-1c0,0,0-0.1,0-0.1
		c0.2-0.3,0.2-0.6,0.2-0.9c0-3.4,0-6.8,0-10.1c0-0.5,0.1-0.5,0.5-0.5c0.1,0,0.3,0,0.4,0c0.1,0,0.2,0.1,0.2,0.2c0,0.1,0,0.2,0,0.3
		c0,0.5,0,1,0,1.5c0,2.9,0,5.8,0,8.7c0,0.2,0,0.4,0.1,0.6c0.1,0.3,0.2,0.7,0.3,1c0,0.1,0.1,0.1,0.1,0.2c0,0.1,0.1,0.2,0.1,0.3
		c0,0.1,0,0.1,0.1,0.2c0.3,0.6,0.5,1.3,0.7,1.9c0.1,0.3,0.2,0.6,0.3,0.9c0.1,0.2,0.2,0.4,0.2,0.7c0.1,0.3,0.2,0.7,0.3,1
		c0.1,0.3,0.2,0.6,0.3,1c0.1,0.4,0.2,0.7,0.4,1.1c0,0.1,0.1,0.2,0.1,0.3c0,0,0,0.1,0,0.1c0,0.4,0.2,0.6,0.3,0.9
		c0.1,0.3,0.2,0.7,0.4,1c0.1,0.3,0.2,0.6,0.3,0.9c0.1,0.4,0.3,0.8,0.4,1.2c0.1,0.3,0.2,0.6,0.3,0.9c0.1,0.3,0.2,0.6,0.3,0.8
		c0.1,0.3,0.2,0.6,0.3,0.9c0.1,0.3,0.2,0.5,0.3,0.8c0.1,0.4,0.3,0.8,0.4,1.2c0.1,0.3,0.2,0.7,0.3,1c0.1,0.2,0.2,0.4,0.2,0.7
		c0.1,0.3,0.2,0.6,0.4,1c0.1,0.2,0.2,0.4,0.2,0.7c0.1,0.3,0.2,0.6,0.3,1c0.1,0.3,0.2,0.6,0.3,0.8c0.2,0.4,0.3,0.9,0.5,1.3
		c0.1,0.3,0.2,0.6,0.4,1c0.1,0.3,0.2,0.6,0.3,1c0,0.1,0.1,0.3,0.2,0.4c0.1,0.2,0,0.3-0.2,0.3c-0.1,0-0.2,0-0.3,0c-1.1,0-2.1,0-3.2,0
		c-1.6,0-3.2,0-4.8,0C96.8,52.8,96.3,52.8,95.8,52.8L95.8,52.8z"/>
	<path class="st0" d="M13.9,52.9c-3.1,0-6.2,0-9.4,0c-0.1,0-0.2,0-0.3,0c-0.1,0-0.2-0.1-0.2-0.2c0-0.1,0-0.2,0.1-0.3
		c0.1-0.4,0.3-0.8,0.4-1.1c0.1-0.3,0.2-0.5,0.3-0.8c0.1-0.3,0.2-0.6,0.3-0.9c0.1-0.3,0.2-0.6,0.3-1c0-0.1,0.1-0.2,0.1-0.2
		c0-0.1,0.1-0.1,0.1-0.2c0.1-0.3,0.2-0.7,0.3-1c0.1-0.3,0.2-0.6,0.3-1c0.1-0.3,0.2-0.7,0.4-1c0.1-0.3,0.2-0.7,0.4-1
		c0.1-0.3,0.2-0.6,0.3-0.9c0.1-0.4,0.3-0.8,0.4-1.2c0.1-0.3,0.2-0.6,0.3-0.8c0.1-0.4,0.3-0.8,0.4-1.2c0.1-0.3,0.2-0.6,0.3-0.9
		c0.1-0.3,0.2-0.6,0.3-0.9c0.1-0.4,0.2-0.7,0.4-1.1c0.1-0.3,0.2-0.6,0.3-0.9c0.1-0.4,0.3-0.8,0.4-1.1c0.1-0.3,0.2-0.7,0.4-1
		c0.1-0.2,0.2-0.5,0.3-0.7c0.1-0.3,0.2-0.7,0.3-1c0.1-0.3,0.2-0.6,0.3-1c0.1-0.3,0.2-0.7,0.4-1c0.1-0.3,0.2-0.6,0.3-1
		c0.1-0.3,0.2-0.6,0.3-0.9c0.1-0.4,0.3-0.7,0.4-1.1c0.1-0.4,0.3-0.7,0.4-1.1c0.1-0.2,0.1-0.4,0.1-0.6c0-2.1,0-4.3,0-6.4
		c0-1.3,0-2.6,0-4c0,0,0-0.1,0-0.1c0-0.2,0.1-0.3,0.3-0.3c0.2,0,0.5,0,0.7,0c0.1,0,0.2,0.1,0.2,0.2c0,0,0,0.1,0,0.2
		c0,3.2,0,6.5,0,9.7c0,0.3,0,0.6,0,0.9c0,0.2,0,0.5,0.2,0.7c0,0.1,0.1,0.1,0.1,0.2c0.1,0.3,0.2,0.7,0.3,1c0.1,0.4,0.3,0.9,0.5,1.3
		c0.2,0.5,0.4,1.1,0.6,1.6c0.1,0.4,0.2,0.7,0.4,1.1c0.1,0.3,0.2,0.6,0.3,1c0.1,0.4,0.2,0.7,0.4,1.1c0.1,0.3,0.2,0.7,0.4,1
		c0.1,0.3,0.2,0.7,0.3,1c0.1,0.3,0.3,0.7,0.4,1c0.1,0.2,0.2,0.5,0.3,0.7c0.1,0.3,0.2,0.7,0.3,1c0.1,0.3,0.2,0.6,0.3,0.9
		c0.1,0.4,0.3,0.8,0.4,1.2c0.1,0.3,0.2,0.7,0.4,1c0.1,0.3,0.2,0.7,0.3,1c0.1,0.3,0.2,0.7,0.4,1c0.1,0.3,0.2,0.5,0.3,0.8
		c0.1,0.3,0.2,0.7,0.3,1c0.1,0.3,0.2,0.5,0.2,0.8c0.2,0.3,0.2,0.6,0.4,0.9c0.1,0.2,0.2,0.5,0.3,0.7c0.1,0.3,0.2,0.7,0.3,1
		c0.1,0.2,0.2,0.5,0.3,0.7c0.1,0.3,0.3,0.6,0.3,1c0.1,0.4,0.3,0.7,0.3,1.1c0,0,0,0,0,0c0.2,0.3,0.2,0.6,0.3,0.8c0,0.1,0,0.1,0.1,0.2
		c0,0.1,0,0.2-0.1,0.2c-0.1,0-0.2,0-0.3,0C20.2,52.9,17.1,52.9,13.9,52.9L13.9,52.9z"/>
	<path class="st0" d="M13.9,69.4c-1.1,0-2.3,0-3.4,0c-1.9,0-3.8,0-5.7,0c-0.2,0-0.4,0-0.6,0c-0.2,0-0.3-0.1-0.3-0.3c0,0,0-0.1,0-0.1
		c0-3.1,0-6.2,0-9.2c0-0.1,0-0.3,0-0.4c0-0.2-0.1-0.3-0.4-0.4c-0.1,0-0.2,0-0.3,0c-0.9,0-1.8,0-2.7,0C0,59,0,59,0,58.5c0-1,0-2,0-3
		c0-0.1,0-0.2,0-0.3C0,55,0.1,55,0.2,54.9c0.1,0,0.2,0,0.3,0c1.8,0,3.6,0,5.4,0c0.1,0,0.1,0,0.2,0c0.2,0,0.3,0.1,0.3,0.3
		c0,0.1,0,0.2,0,0.3c0,0.6,0,1.2,0,1.8c0,0.4,0.1,0.5,0.5,0.5c0.8,0,1.6,0,2.4,0c0,0,0.1,0,0.1,0c0.4,0,0.5-0.1,0.5-0.5
		c0-0.5,0-1,0-1.5c0-0.2,0-0.4,0-0.6c0-0.2,0.1-0.3,0.3-0.3c0.1,0,0.2,0,0.3,0c0.5,0,0.9,0,1.4,0c0.1,0,0.2,0,0.3,0
		c0.1,0,0.2,0.1,0.2,0.2c0,0.1,0,0.2,0,0.3c0,0.6,0,1.3,0,1.9c0,0.5,0.1,0.5,0.5,0.5c0.8,0,1.6,0,2.5,0c0.4,0,0.5-0.1,0.5-0.5
		c0-0.6,0-1.3,0-1.9c0-0.1,0-0.2,0-0.3c0-0.1,0.1-0.2,0.2-0.2c0.1,0,0.2,0,0.3,0c0.5,0,1,0,1.4,0c0.1,0,0.1,0,0.2,0
		c0.2,0,0.2,0.1,0.2,0.3c0,0.1,0,0.1,0,0.2c0,0.6,0,1.2,0,1.9c0,0.5,0.1,0.5,0.5,0.5c0.8,0,1.6,0,2.4,0c0.5,0,0.6-0.1,0.6-0.6
		c0-0.6,0-1.2,0-1.8l0-0.1c0-0.3,0.1-0.4,0.4-0.4c1.3,0,2.7,0,4,0c0.5,0,1,0,1.5,0c0.4,0,0.4,0,0.4,0.4c0,1.1,0,2.2,0,3.3
		c0,0,0,0,0,0.1c0,0.2-0.1,0.3-0.3,0.3c-0.1,0-0.1,0-0.2,0c-1,0-1.9,0-2.9,0c-0.1,0-0.2,0-0.3,0c-0.2,0-0.3,0.1-0.3,0.3
		c0,0.1,0,0.1,0,0.2c0,3,0,5.9,0,8.9c0,0.2,0,0.4,0,0.7c0,0.2-0.1,0.3-0.3,0.3c0,0-0.1,0-0.1,0C20.3,69.4,17.1,69.4,13.9,69.4
		L13.9,69.4z"/>
	<path class="st0" d="M95.9,69.3c-0.4,0-0.8,0-1.1,0c-0.6,0-1.2,0-1.8,0c-0.7,0-1.4,0-2.2,0c-0.8,0-1.6,0-2.4,0c-0.7,0-1.3,0-2,0
		c0,0-0.1,0-0.1,0c-0.1,0-0.2-0.1-0.2-0.2c0-0.1,0-0.2,0-0.3c0-3.1,0-6.3,0-9.4c0-0.4-0.1-0.5-0.5-0.5c-1,0-1.9,0-2.9,0
		c-0.1,0-0.2,0-0.3,0c-0.1,0-0.2-0.1-0.2-0.2c0-0.1,0-0.1,0-0.2c0-1,0-2,0-3.1c0-0.5,0-0.5,0.5-0.5c1.4,0,2.7,0,4.1,0
		c0.4,0,0.8,0,1.2,0c0.1,0,0.1,0,0.2,0c0.2,0,0.3,0.1,0.3,0.3c0,0.1,0,0.2,0,0.3c0,0.6,0,1.2,0,1.8c0,0.4,0.1,0.5,0.5,0.5
		c0.8,0,1.7,0,2.5,0c0,0,0.1,0,0.1,0c0.2,0,0.3-0.1,0.3-0.3c0-0.1,0-0.2,0-0.3c0-0.6,0-1.2,0-1.8c0-0.4,0-0.5,0.5-0.5
		c0.5,0,1,0,1.5,0c0.4,0,0.5,0,0.5,0.5c0,0.5,0,1,0,1.5c0,0.1,0,0.3,0,0.4c0,0.1,0,0.1,0,0.2c0,0.1,0.1,0.2,0.2,0.2
		c0.1,0,0.1,0,0.2,0c0.8,0,1.7,0,2.5,0c0.4,0,0.5-0.1,0.5-0.5c0-0.6,0-1.3,0-1.9c0-0.1,0-0.2,0-0.3c0-0.1,0.1-0.2,0.2-0.2
		c0,0,0.1,0,0.1,0c0.5,0,1.1,0,1.6,0c0,0,0.1,0,0.1,0c0.2,0,0.3,0.1,0.3,0.3c0,0.1,0,0.2,0,0.3c0,0.6,0,1.2,0,1.7l0,0.1
		c0,0.4,0.1,0.5,0.5,0.5c0.3,0,0.6,0,0.9,0c0.5,0,1,0,1.5,0c0.1,0,0.1,0,0.2,0c0.3,0,0.4-0.1,0.4-0.4c0-0.1,0-0.1,0-0.2
		c0-0.6,0-1.2,0-1.8c0-0.4,0-0.4,0.4-0.4c1.8,0,3.7,0,5.5,0c0.4,0,0.4,0,0.4,0.4c0,1,0,2,0,3.1l0,0.1c0,0.4,0,0.4-0.4,0.4
		c-0.9,0-1.9,0-2.8,0c-0.1,0-0.3,0-0.4,0c-0.2,0-0.3,0.1-0.3,0.3c0,0.1,0,0.2,0,0.3c0,2.9,0,5.9,0,8.8c0,0.2,0,0.4,0,0.6
		c0,0.2-0.1,0.3-0.3,0.3c-0.4,0-0.7,0-1.1,0c-1.4,0-2.7,0-4.1,0c-0.3,0-0.5,0-0.8,0C98.3,69.3,97.1,69.3,95.9,69.3L95.9,69.3z"/>
	<path class="st0" d="M28.6,16.8c-0.1,0.1-0.1,0.2-0.2,0.2c-0.2,0.1-0.4,0.3-0.6,0.4c-0.4,0.2-0.9,0.5-1.3,0.7
		c-0.3,0.1-0.5,0.2-0.8,0.3c-0.4,0.1-0.8,0.3-1.1,0.4c0,0-0.1,0-0.1,0c-0.6,0.1-1.2,0.3-1.9,0.3c-0.7,0-1.4,0-2.1,0
		c-0.1,0-0.2,0-0.4,0c-0.9-0.2-1.9-0.2-2.9-0.1c-0.4,0-0.8,0.1-1.2,0.1c-0.2,0-0.3,0-0.5,0c-0.2,0-0.2-0.1-0.2-0.2c0,0,0-0.1,0-0.1
		c0-1.2,0-2.4,0-3.6c0-0.1,0-0.1,0-0.2c0-0.1,0.1-0.2,0.1-0.2c0,0,0.1,0,0.1,0c1-0.2,1.9-0.3,2.9-0.1c0.3,0,0.6,0.1,0.8,0.1
		c0.1,0,0.2,0,0.3,0.1c0.2,0.1,0.4,0.1,0.6,0.2c0,0,0.1,0,0.1,0c0.4,0.2,0.8,0.3,1.2,0.5c0.4,0.2,0.7,0.3,1.1,0.5
		c0.3,0.2,0.6,0.3,1,0.4c0.4,0.2,0.8,0.2,1.1,0.3c0.1,0,0.3,0.1,0.4,0.1c0.1,0,0.3,0,0.4,0.1c0.8,0.2,1.6,0.2,2.4,0
		c0.2,0,0.4-0.1,0.6-0.1C28.4,16.8,28.5,16.8,28.6,16.8z"/>
	<path class="st0" d="M110.5,17.2c-0.6,0.3-1,0.6-1.6,0.9c-0.4,0.2-0.9,0.4-1.4,0.6c-0.4,0.1-0.7,0.2-1.1,0.4c-0.1,0-0.2,0-0.3,0.1
		c-0.1,0-0.2,0-0.3,0.1c-1.1,0.3-2.2,0.3-3.3,0.2c-0.4,0-0.8-0.1-1.2-0.2c-0.3-0.1-0.7-0.1-1.1-0.1c-0.3,0-0.6,0-0.8,0
		c-0.4,0-0.8,0-1.1,0.2c-0.3,0.1-0.7,0.1-1,0.1c-0.1,0-0.2-0.1-0.2-0.2c0-0.1,0-0.2,0-0.3c0-1.2,0-2.4,0-3.6c0,0,0-0.1,0-0.1
		c0-0.1,0.1-0.2,0.2-0.2c0.3-0.1,0.5-0.1,0.8-0.1c0.7-0.1,1.3-0.1,2,0c0.3,0,0.5,0.1,0.8,0.1c0.1,0,0.2,0,0.3,0.1
		c0.2,0.1,0.5,0.1,0.7,0.2c0.3,0.1,0.6,0.2,0.9,0.3c0.6,0.2,1.1,0.5,1.7,0.8c0.5,0.2,1,0.4,1.5,0.6c0.1,0,0.2,0.1,0.2,0.1
		c0.1,0,0.2,0.1,0.2,0.1c0.7,0.1,1.3,0.3,2,0.2c0.4,0,0.8,0,1.2-0.1c0.2,0,0.4-0.1,0.5-0.1C110.3,17.1,110.4,17.1,110.5,17.2z"/>
	<path class="st0" d="M69.2,2.3c-0.2,0.2-0.4,0.3-0.6,0.5c-0.6,0.4-1.2,0.7-1.8,1C66.5,3.8,66.2,4,65.9,4c-0.1,0-0.1,0.1-0.2,0.1
		c-0.4,0.2-0.8,0.2-1.2,0.3c-0.3,0.1-0.6,0.1-0.9,0.1c-0.4,0.1-0.7,0.1-1.1,0.1c0,0-0.1,0-0.1,0c-0.6,0.1-1.1,0-1.7-0.1
		c-0.1,0-0.3,0-0.4-0.1c-0.5,0-1.1-0.1-1.6-0.1c-0.3,0-0.6,0-0.8,0.1c0,0-0.1,0-0.1,0c-0.5,0-0.9,0.1-1.3,0.2c0,0,0,0-0.1,0
		c-0.2,0-0.3,0-0.3-0.2c0-0.1,0-0.2,0-0.3c0-1.2,0-2.3,0-3.5c0-0.4,0.1-0.5,0.4-0.6c0.2,0,0.3-0.1,0.5-0.1c0.7,0,1.3,0,2,0
		c0.1,0,0.3,0,0.4,0.1c0.3,0.1,0.6,0.1,0.9,0.2c0.1,0,0.1,0,0.2,0.1c0.4,0.1,0.8,0.3,1.2,0.4c0.4,0.2,0.8,0.4,1.1,0.5
		c0.3,0.1,0.6,0.2,0.9,0.4c0.3,0.2,0.6,0.3,0.9,0.3c0.4,0.1,0.9,0.3,1.4,0.3c0.8,0.1,1.7,0.1,2.5,0c0.1,0,0.3-0.1,0.4-0.1
		C68.9,2.3,69,2.2,69.2,2.3z"/>
</g>
</svg>
