<?xml version="1.0" encoding="utf-8"?>
<!-- Generator: Adobe Illustrator 21.1.0, SVG Export Plug-In . SVG Version: 6.00 Build 0)  -->
<svg version="1.1" id="Layer_1" xmlns="http://www.w3.org/2000/svg" xmlns:xlink="http://www.w3.org/1999/xlink" x="0px" y="0px"
	 viewBox="0 0 153.1 138.1" style="enable-background:new 0 0 153.1 138.1;" xml:space="preserve">
<style type="text/css">
	.st0{fill:#00437B;}
</style>
<g>
	<path class="st0" d="M109.3,91.7v22l26.9,10.6V81.1L109.3,91.7z"/>
	<g>
		<g>
			<g>
				<rect x="31.6" y="81.1" class="st0" width="72.6" height="43.6"/>
			</g>
			<g>
				<path class="st0" d="M101.9,9.8c-12.8,0-23.2,10.4-23.2,23.2c0,3.5,0.8,6.8,2.2,9.8c-4-1.6-8.4-2.4-13-2.4c-4.6,0-9,0.9-13,2.4
					c1.4-3,2.2-6.3,2.2-9.8C57,20.2,46.6,9.8,33.8,9.8c-12.8,0-23.2,10.4-23.2,23.2s10.4,23.2,23.2,23.2c1.5,0,3-0.1,4.4-0.4
					c-4,5.6-6.4,12.4-6.6,19.8h72.5c-0.2-7.3-2.6-14.1-6.6-19.8c1.4,0.3,2.9,0.4,4.4,0.4c12.8,0,23.2-10.4,23.2-23.2
					S114.8,9.8,101.9,9.8z"/>
			</g>
		</g>
	</g>
</g>
</svg>
