<?xml version="1.0" encoding="utf-8"?>
<!-- Generator: Adobe Illustrator 15.0.0, SVG Export Plug-In . SVG Version: 6.00 Build 0)  -->
<!DOCTYPE svg PUBLIC "-//W3C//DTD SVG 1.1//EN" "http://www.w3.org/Graphics/SVG/1.1/DTD/svg11.dtd">
<svg version="1.1" id="Layer_1" xmlns="http://www.w3.org/2000/svg" xmlns:xlink="http://www.w3.org/1999/xlink" x="0px" y="0px"
	 width="215.801px" height="176.806px" viewBox="0 0 215.801 176.806" enable-background="new 0 0 215.801 176.806"
	 xml:space="preserve">
<g>
	<defs>
		<rect id="SVGID_1_" width="215.801" height="176.806"/>
	</defs>
	<clipPath id="SVGID_2_">
		<use xlink:href="#SVGID_1_"  overflow="visible"/>
	</clipPath>
	<path clip-path="url(#SVGID_2_)" fill="#00437B" d="M131.781,57.334h-8.63v-9.939c0-7.815-6.358-14.174-14.174-14.174
		s-14.173,6.359-14.173,14.174v9.025h-8.63v-9.025c0-12.575,10.23-22.805,22.803-22.805s22.804,10.23,22.804,22.805V57.334z"/>
	<path clip-path="url(#SVGID_2_)" fill="#00437B" d="M67.473,141.992h83.009V61.839H67.473V141.992z M132.874,107.2
		c-0.272,3.506-1.619,9.414-11.18,12.325c-6.307,1.898-12.258,0.989-15.515,0.162c-0.069,1.291-0.213,1.838-0.42,2.061
		c-0.269,0.273-2.332,1.468-3.463-0.223c-0.508-0.798-0.762-2.253-0.909-3.535c-7.308-3.357-10.674-8.21-10.797-8.425
		c-0.162-0.155-1.822-1.895-0.162-4.035c1.566-1.928,6.68-3.849,11.293-4.632c0.159-3.937,0.621-6.914,1.172-8.274
		c0.662-1.581,1.503-0.151,2.235,0.908c0.612,0.793,0.973,4.228,1.003,6.979c3.008-0.14,4.798,0.078,8.157,0.687
		c4.378,0.796,7.302,3.03,7.047,5.569c-0.19,2.485-2.481,3.519-3.349,3.59c-0.919,0.079-2.334-0.573-2.334-0.573
		c-0.977-0.462-0.076-0.865,1.097-1.385c1.271-0.625,0.987-1.261,0.987-1.261c-0.475-1.386-6.158-2.362-11.813-2.367
		c-0.022,3.122,0.129,8.296,0.208,11.309c3.958,0.756,6.915,0.615,6.915,0.615s14.431-0.4,14.869-9.623
		c0.446-9.234-14.4-18.087-25.365-20.901c-10.961-2.874-17.158-0.865-17.691-0.588c-0.581,0.291-0.039,0.382-0.039,0.382
		s0.59,0.086,1.627,0.44c1.092,0.347,0.24,0.907,0.24,0.907c-1.867,0.592-3.976,0.217-4.375-0.631
		c-0.409-0.849,0.268-1.619,1.051-2.725c0.78-1.154,1.639-1.122,1.639-1.122c13.553-4.691,30.064,3.79,30.064,3.79
		C130.529,94.444,133.156,103.636,132.874,107.2"/>
	<path clip-path="url(#SVGID_2_)" fill="#00437B" d="M91.489,108.567c2.883,3.103,6.44,5.05,9.813,6.252
		c0.396-5.352,0.337-7.233,0.37-9.931c-5.274,0.362-8.317,1.203-9.705,1.832C90.428,107.468,91.489,108.567,91.489,108.567"/>
</g>
</svg>
