<?xml version="1.0" encoding="utf-8"?><!DOCTYPE svg PUBLIC "-//W3C//DTD SVG 1.1//EN" "http://www.w3.org/Graphics/SVG/1.1/DTD/svg11.dtd"><svg width="516" height="492" viewBox="0 0 516 492" xmlns="http://www.w3.org/2000/svg" xmlns:xlink="http://www.w3.org/1999/xlink"><svg id="icon-castle" viewBox="0 0 110.5 120.5" width="110.5" height="120.5" x="379.40099999999995" y="176.8"><style>.ast0{fill:#00437b}</style><path class="ast0" d="M25.2 98.8v21.5c0 .2-.1.2-.2.2H2.9c-.1 0-.2-.1-.2-.2v-.3-8.9-10.4-8.6-10.3-4.1-.4c0-.2-.1-.3-.3-.3H.2c-.2 0-.2-.1-.2-.3v-.2-3.6c0-.5 0-.5.5-.5h26.9c.4 0 .5 0 .5.5v3.7c0 .4 0 .4-.4.4h-1.7c-.4 0-.5.1-.5.5V90c-.1 2.9-.1 5.8-.1 8.8zm-11.3-4h3.9c.3 0 .4-.1.4-.4v-.5-5.3c0-.3 0-.7-.1-1 0-.1 0-.2-.1-.3-.1-.3-.2-.7-.4-1-.4-.7-.9-1.2-1.5-1.6-.4-.2-.8-.4-1.2-.5-.9-.2-1.7-.2-2.5.1-.4.1-.7.3-1 .5-.6.5-1.1 1-1.5 1.8-.2.5-.4 1.1-.4 1.7v6.1c0 .3.1.4.4.4h4zM107.2 98.6v21.3c0 .4 0 .4-.4.4H85c-.1 0-.2-.1-.2-.2v-.3-11.2-8.2-10.7-8.4-3.9-.4c0-.2-.1-.3-.3-.3h-1.9c-.4 0-.4-.1-.4-.4v-3.5-.3c0-.2.1-.2.2-.2h27.1c.4 0 .5 0 .5.5v3.7c0 .2-.1.2-.2.3h-2c-.3 0-.4.1-.4.4v13.4c-.2 2.6-.2 5.3-.2 8zm-11.3-3.8h4.1c.2 0 .2-.1.3-.3v-.4-5.3c0-.4 0-.8-.1-1.2v-.3c-.1-.4-.2-.7-.4-1.1-.5-.8-1.1-1.4-1.9-1.8l-.9-.3c-.5-.2-1.1-.2-1.6-.1-.6.1-1.2.3-1.7.6-.5.4-1 .8-1.3 1.3-.2.4-.4.8-.5 1.2-.1.3-.2.6-.2 1v6.3c0 .1.1.2.2.2h.4c1.1.2 2.4.2 3.6.2zM54.7 93.2H80.1c.3 0 .3.1.3.3V120.1c0 .1-.1.2-.2.2H65.2c-.1 0-.2-.1-.2-.2v-2.2-.2-1.9-2.8-2.8c0-.2 0-.4-.1-.5 0-.3-.1-.6-.1-.8v-.1c-.1-.4-.2-.7-.3-1.1-.1-.2-.1-.4-.2-.6-.3-.8-.7-1.5-1.2-2.2-.8-1.1-1.8-2-2.9-2.7-.5-.3-1.1-.6-1.7-.8-.1 0-.1-.1-.2-.1s-.1-.1-.2-.1c-.3 0-.6-.2-.8-.2-.3-.1-.6-.1-.9-.2-.2 0-.3-.1-.5-.1-.8-.1-1.7-.1-2.5 0-.2 0-.4.1-.7.1-.1 0-.3.1-.4.1-.2 0-.4.1-.6.2-.1 0-.2.1-.4.1-.1 0-.2.1-.3.1-.1 0-.1.1-.2.1-.5.1-1 .4-1.4.7-.9.5-1.7 1.2-2.5 2-.6.6-1.1 1.3-1.5 2.1-.2.4-.4.9-.6 1.4-.1.4-.3.8-.3 1.2v.2c-.2.6-.2 1.3-.2 1.9v9.5c0 .2-.1.3-.3.3H29c-.1 0-.2-.1-.2-.2v-.2-16.4-9.4-.6c0-.2.1-.3.2-.3H51.2c1.2-.4 2.4-.4 3.5-.4zm-18.3 6.5h-2.3c-.4 0-.5.1-.5.5v4.7c0 .2.1.3.3.3H38.8c.2 0 .3-.1.3-.3v-.3-4.4c0-.5 0-.5-.5-.5h-2.2zm36.2 0h-2.5c-.2 0-.3.1-.3.3v4.8c0 .2.1.3.4.4H75.1c.1 0 .2-.1.3-.2v-.4-4.3-.3c0-.2-.1-.3-.3-.3h-2.5zM54.6 78.1H41.7c-.4 0-.5 0-.5-.4V62.9v-9.3-.4c0-.2-.1-.3-.3-.3h-4.2c-.1 0-.2-.1-.2-.2v-.2V46.3c0-.2.1-.3.3-.3h2.7c.1 0 .1.1.1.1v1.7c0 .4.1.5.5.5h2.6c.1 0 .2-.1.2-.2v-.3-1.4-.1c0-.2.1-.3.3-.3h2.6c.3 0 .3.1.3.4v1.7c0 .3.1.3.3.4h2.9c.2 0 .3-.1.3-.3v-.3-1.4c0-.3.1-.4.4-.4h2.5c.2 0 .2.1.2.2V48.2c0 .2.1.3.3.3H56c.2 0 .3-.1.3-.3v-.3-1.3-.2c0-.3.1-.3.4-.3h2.5c.2 0 .3.1.3.3v1.8c0 .2.1.3.3.3H62.4c.5 0 .6-.1.6-.6v-1.3-.1c0-.4 0-.4.4-.4H66.1c.1 0 .2.1.2.2V48c0 .4.1.5.5.5h2.5c.5 0 .5-.1.5-.5v-1.4-.2c0-.2.1-.3.3-.3H72.4c.4 0 .5 0 .5.5v6.1c0 .2-.1.2-.3.3h-4.1c-.2 0-.3.1-.3.4v24.7c0 .1-.1.2-.2.2h-8.4c-1.8-.2-3.4-.2-5-.2zm.1-9.5h3.9c.2 0 .3-.1.3-.3v-.4-5.4c0-.7-.1-1.4-.4-2-.3-.6-.7-1.1-1.2-1.5-.5-.4-1.1-.7-1.8-.9h-.3c-.7 0-1.4-.1-2.1.2-.4.2-.9.4-1.2.7-.7.5-1.2 1.2-1.5 2-.2.5-.3 1-.1 1.5v5.9c0 .2.1.3.3.3h.3c1.3-.1 2.5-.1 3.8-.1zM54.5 43.6H40.8c-.1 0-.2-.1-.1-.2 0-.1 0-.1.1-.2l.6-1.2c.2-.5.4-1 .6-1.4.2-.4.4-.8.6-1.3.1-.3.2-.5.3-.8.1-.2.2-.3.2-.5.2-.5.4-1 .6-1.4.2-.4.4-.8.5-1.2.2-.5.4-.9.6-1.4.2-.4.4-.9.6-1.3.2-.4.4-.8.6-1.3.2-.4.4-.9.6-1.3.2-.4.4-.9.6-1.3.2-.5.4-.9.6-1.4.2-.4.4-.9.6-1.3.2-.4.4-.9.6-1.3.2-.4.4-.8.6-1.3.1-.3.3-.6.4-.8.2-.5.4-.9.6-1.4.2-.4.4-.9.6-1.3l.6-1.2c.2-.5.4-.9.6-1.4l.3-.6c.4-.8.7-1.6 1.1-2.4.1-.3.2-.6.2-.9V7.4v-6-.7c0-.2.1-.3.3-.3h.7c.2 0 .2.1.2.2V13.8c0 .1 0 .2.1.3l.3.6c0 .1.1.2.1.3 0 .1 0 .1.1.2.3.5.5 1 .7 1.5.2.4.3.8.5 1.1.1.3.2.5.4.8.3.7.6 1.3.9 2 .2.4.4.9.6 1.3.2.4.4.8.5 1.2.3.6.6 1.3.9 1.9.2.4.4.9.6 1.3.2.4.4.9.6 1.3.2.4.4.8.6 1.3.2.4.4.8.5 1.2.1.3.3.6.4.9.1.3.2.6.4.8l.3.6c.3.6.6 1.2.8 1.8.2.4.4.8.5 1.2.1.3.3.6.4.9.2.4.4.9.6 1.3.2.4.3.8.5 1.2.1.2.2.5.3.7.2.5.5 1 .7 1.5.2.4.4.9.6 1.3.1.3.3.6.4.8 0 0 0 .1.1.1.1.2 0 .3-.2.3H56.2c-.7.1-1.2.1-1.7.1zM54.7 81.8h25.5c.1 0 .2.1.2.2v7c0 .5 0 .5-.5.5H29.3c-.2 0-.3-.1-.3-.3v-.3-6.5-.2c0-.2.1-.3.3-.3h24.1c.4-.1.8-.1 1.3-.1zM95.8 52.8H86c-.2 0-.2-.1-.1-.3.1-.4.3-.7.4-1.1.1-.3.2-.6.4-1 .1-.2.2-.5.3-.7l.3-.9.3-.9c.1-.4.3-.8.4-1.2.1-.3.2-.6.4-1l.3-.9c.1-.3.2-.6.3-1l.3-.9c.1-.3.2-.5.3-.8.1-.4.3-.8.4-1.2l.3-.9c.1-.3.3-.7.4-1 .1-.2.2-.4.2-.7.1-.3.2-.6.3-1l.3-.9c.1-.4.3-.8.4-1.1.1-.3.2-.6.3-.8.1-.4.3-.8.4-1.2.2-.5.4-1.1.6-1.6.1-.3.2-.6.3-1 0-.1.1-.2.1-.2 0-.1.1-.3.1-.4 0-.1.1-.2.1-.2 0-.1.1-.1.1-.2 0-.3.2-.6.3-.9.1-.3.2-.7.4-1 .1-.3.2-.7.3-1v-.1c.2-.3.2-.6.2-.9V15.7c0-.5.1-.5.5-.5h.4c.1 0 .2.1.2.2v10.5c0 .2 0 .4.1.6.1.3.2.7.3 1 0 .1.1.1.1.2s.1.2.1.3c0 .1 0 .1.1.2.3.6.5 1.3.7 1.9l.3.9c.1.2.2.4.2.7.1.3.2.7.3 1 .1.3.2.6.3 1 .1.4.2.7.4 1.1 0 .1.1.2.1.3v.1c0 .4.2.6.3.9.1.3.2.7.4 1l.3.9c.1.4.3.8.4 1.2l.3.9c.1.3.2.6.3.8l.3.9c.1.3.2.5.3.8.1.4.3.8.4 1.2.1.3.2.7.3 1 .1.2.2.4.2.7.1.3.2.6.4 1 .1.2.2.4.2.7.1.3.2.6.3 1 .1.3.2.6.3.8.2.4.3.9.5 1.3.1.3.2.6.4 1 .1.3.2.6.3 1 0 .1.1.3.2.4.1.2 0 .3-.2.3h-8.3c0-.2-.5-.2-1-.2zM13.9 52.9H4.2c-.1 0-.2-.1-.2-.2s0-.2.1-.3c.1-.4.3-.8.4-1.1.1-.3.2-.5.3-.8l.3-.9c.1-.3.2-.6.3-1 0-.1.1-.2.1-.2 0-.1.1-.1.1-.2.1-.3.2-.7.3-1 .1-.3.2-.6.3-1 .1-.3.2-.7.4-1 .1-.3.2-.7.4-1l.3-.9c.1-.4.3-.8.4-1.2.1-.3.2-.6.3-.8.1-.4.3-.8.4-1.2l.3-.9.3-.9c.1-.4.2-.7.4-1.1l.3-.9c.1-.4.3-.8.4-1.1.1-.3.2-.7.4-1 .1-.2.2-.5.3-.7.1-.3.2-.7.3-1 .1-.3.2-.6.3-1 .1-.3.2-.7.4-1 .1-.3.2-.6.3-1l.3-.9c.1-.4.3-.7.4-1.1.1-.4.3-.7.4-1.1.1-.2.1-.4.1-.6v-6.4-4-.1c0-.2.1-.3.3-.3h.7c.1 0 .2.1.2.2V26c0 .2 0 .5.2.7 0 .1.1.1.1.2.1.3.2.7.3 1 .1.4.3.9.5 1.3.2.5.4 1.1.6 1.6.1.4.2.7.4 1.1.1.3.2.6.3 1 .1.4.2.7.4 1.1.1.3.2.7.4 1 .1.3.2.7.3 1 .1.3.3.7.4 1 .1.2.2.5.3.7.1.3.2.7.3 1l.3.9c.1.4.3.8.4 1.2.1.3.2.7.4 1 .1.3.2.7.3 1 .1.3.2.7.4 1 .1.3.2.5.3.8.1.3.2.7.3 1 .1.3.2.5.2.8.2.3.2.6.4.9.1.2.2.5.3.7.1.3.2.7.3 1 .1.2.2.5.3.7.1.3.3.6.3 1 .1.4.3.7.3 1.1.2.3.2.6.3.8 0 .1 0 .1.1.2 0 .1 0 .2-.1.2h-.3c-3.3-.1-6.4-.1-9.6-.1zM13.9 69.4H4.2c-.2 0-.3-.1-.3-.3V69v-9.2-.4c0-.2-.1-.3-.4-.4h-3c-.5 0-.5 0-.5-.5v-3-.3c0-.2.1-.2.2-.3h5.9c.2 0 .3.1.3.3v2.1c0 .4.1.5.5.5h2.5c.4 0 .5-.1.5-.5v-1.5-.6c0-.2.1-.3.3-.3h2c.1 0 .2.1.2.2V57.3c0 .5.1.5.5.5h2.5c.4 0 .5-.1.5-.5v-1.9-.3c0-.1.1-.2.2-.2H18c.2 0 .2.1.2.3v2.1c0 .5.1.5.5.5h2.4c.5 0 .6-.1.6-.6V55.3c0-.3.1-.4.4-.4h5.5c.4 0 .4 0 .4.4v3.4c0 .2-.1.3-.3.3h-3.4c-.2 0-.3.1-.3.3V69.1c0 .2-.1.3-.3.3H13.9zM95.9 69.3h-9.5-.1c-.1 0-.2-.1-.2-.2v-.3-9.4c0-.4-.1-.5-.5-.5H82.4c-.1 0-.2-.1-.2-.2v-.2-3.1c0-.5 0-.5.5-.5h5.5c.2 0 .3.1.3.3v2.1c0 .4.1.5.5.5h2.6c.2 0 .3-.1.3-.3v-.3-1.8c0-.4 0-.5.5-.5h1.5c.4 0 .5 0 .5.5v2.1c0 .1.1.2.2.2h2.7c.4 0 .5-.1.5-.5v-1.9-.3c0-.1.1-.2.2-.2H99.8c.2 0 .3.1.3.3v2.1c0 .4.1.5.5.5h2.6c.3 0 .4-.1.4-.4v-.2-1.8c0-.4 0-.4.4-.4h5.5c.4 0 .4 0 .4.4v3.2c0 .4 0 .4-.4.4H106.3c-.2 0-.3.1-.3.3V68.9c0 .2-.1.3-.3.3H99.7c-1.4.1-2.6.1-3.8.1z"/><path class="ast0" d="M28.6 16.8c-.1.1-.1.2-.2.2-.2.1-.4.3-.6.4-.4.2-.9.5-1.3.7-.3.1-.5.2-.8.3-.4.1-.8.3-1.1.4h-.1c-.6.1-1.2.3-1.9.3h-2.5c-.9-.2-1.9-.2-2.9-.1-.4 0-.8.1-1.2.1h-.5c-.2 0-.2-.1-.2-.2v-.1-3.6-.2c0-.1.1-.2.1-.2h.1c1-.2 1.9-.3 2.9-.1.3 0 .6.1.8.1.1 0 .2 0 .3.1.2.1.4.1.6.2h.1c.4.2.8.3 1.2.5.4.2.7.3 1.1.5.3.2.6.3 1 .4.4.2.8.2 1.1.3.1 0 .3.1.4.1.1 0 .3 0 .4.1.8.2 1.6.2 2.4 0 .2 0 .4-.1.6-.1 0-.1.1-.1.2-.1zM110.5 17.2c-.6.3-1 .6-1.6.9-.4.2-.9.4-1.4.6-.4.1-.7.2-1.1.4-.1 0-.2 0-.3.1-.1 0-.2 0-.3.1-1.1.3-2.2.3-3.3.2-.4 0-.8-.1-1.2-.2-.3-.1-.7-.1-1.1-.1h-.8c-.4 0-.8 0-1.1.2-.3.1-.7.1-1 .1-.1 0-.2-.1-.2-.2V19v-3.6-.1c0-.1.1-.2.2-.2.3-.1.5-.1.8-.1.7-.1 1.3-.1 2 0 .3 0 .5.1.8.1.1 0 .2 0 .3.1.2.1.5.1.7.2l.9.3c.6.2 1.1.5 1.7.8l1.5.6c.1 0 .2.1.2.1.1 0 .2.1.2.1.7.1 1.3.3 2 .2.4 0 .8 0 1.2-.1.2 0 .4-.1.5-.1.2-.2.3-.2.4-.1zM69.2 2.3c-.2.2-.4.3-.6.5-.6.4-1.2.7-1.8 1-.3 0-.6.2-.9.2-.1 0-.1.1-.2.1-.4.2-.8.2-1.2.3-.3.1-.6.1-.9.1-.4.1-.7.1-1.1.1h-.1c-.6.1-1.1 0-1.7-.1-.1 0-.3 0-.4-.1-.5 0-1.1-.1-1.6-.1-.3 0-.6 0-.8.1h-.1c-.5 0-.9.1-1.3.2h-.1c-.2 0-.3 0-.3-.2v-.3V.6c0-.4.1-.5.4-.6.2 0 .3-.1.5-.1h2c.1 0 .3 0 .4.1.3.1.6.1.9.2.1 0 .1 0 .2.1.4.1.8.3 1.2.4.4.2.8.4 1.1.5.3.1.6.2.9.4.3.2.6.3.9.3.4.1.9.3 1.4.3.8.1 1.7.1 2.5 0 .1 0 .3-.1.4-.1 0 .2.1.1.3.2z"/></svg><svg id="icon-mickey-clock" viewBox="0 0 163.6 168.1" width="163.6" height="168.1" x="215.801" y="176.8"><style>.bst0{fill:#00437b}</style><path class="bst0" d="M154.6 38.1c0-14-11.4-25.4-25.4-25.4-13.7 0-24.8 10.8-25.3 24.4-5.2-2.2-10.8-3.6-16.6-4.1 0-.1.1-.2.1-.3 0-3-2.4-5.4-5.4-5.4s-5.4 2.4-5.4 5.4c0 .1 0 .2.1.3-6.1.6-11.8 2.1-17.2 4.3-.5-13.7-11.7-24.6-25.4-24.6-14 0-25.4 11.4-25.4 25.4 0 13.1 9.9 23.9 22.7 25.2-4.2 7.9-6.5 16.9-6.5 26.5 0 16.4 7 31.2 18.1 41.6l-6.7 6.7c-2 2-2 5.3 0 7.3s5.3 2 7.3 0l6.7-6.7c.3-.3.4-.6.6-.9 8.9 5.8 19.6 9.2 31 9.2s22.1-3.4 31-9.2c.2.3.3.7.6.9l6.7 6.7c2 2 5.3 2 7.3 0s2-5.3 0-7.3l-6.7-6.7c11.1-10.4 18.1-25.2 18.1-41.6 0-9.6-2.4-18.7-6.6-26.6 12.7-1.6 22.3-12.2 22.3-25.1zm-72.7 95.2c-24 0-43.5-19.5-43.5-43.5s19.5-43.5 43.5-43.5 43.5 19.5 43.5 43.5-19.4 43.5-43.5 43.5z"/><path class="bst0" d="M106.7 87.8h-21v-28c0-2.1-1.7-3.8-3.8-3.8-2.1 0-3.8 1.7-3.8 3.8v31.7c0 2.1 1.7 3.8 3.8 3.8h24.7c2.1 0 3.8-1.7 3.8-3.8 0-2-1.7-3.7-3.7-3.7z"/></svg><svg id="icon-mickey-theater" viewBox="0 0 153.1 138.1" width="153.1" height="138.1" y="353.606"><style>.cst0{fill:#00437b}</style><path class="cst0" d="M109.3 91.7v22l26.9 10.6V81.1l-26.9 10.6zM31.6 81.1h72.6v43.6H31.6zM101.9 9.8C89.1 9.8 78.7 20.2 78.7 33c0 3.5.8 6.8 2.2 9.8-4-1.6-8.4-2.4-13-2.4s-9 .9-13 2.4c1.4-3 2.2-6.3 2.2-9.8C57 20.2 46.6 9.8 33.8 9.8S10.6 20.2 10.6 33 21 56.2 33.8 56.2c1.5 0 3-.1 4.4-.4-4 5.6-6.4 12.4-6.6 19.8h72.5c-.2-7.3-2.6-14.1-6.6-19.8 1.4.3 2.9.4 4.4.4 12.8 0 23.2-10.4 23.2-23.2S114.8 9.8 101.9 9.8z"/></svg><svg id="icon-pixie-card" viewBox="0 0 515.8 176.8" width="515.8" height="176.8"><style>.dst0{fill:#00437b}</style><path class="dst0" d="M436 78l-2.3-.8c-.6-.2-1-.7-1.2-1.2l-.8-2.3c-.2-.5-.8-.5-1 0l-.8 2.3c-.2.6-.7 1-1.2 1.2l-2.3.8c-.5.2-.5.8 0 1l2.3.8c.6.2 1 .7 1.2 1.2l.8 2.3c.2.5.8.5 1 0l.8-2.3c.2-.6.7-1 1.2-1.2l2.3-.8c.5-.1.5-.8 0-1zM459.2 74.2l-1.9-.7c-.5-.2-.8-.5-1-1l-.7-1.9c-.1-.4-.7-.4-.8 0l-.7 1.9c-.2.5-.5.8-1 1l-1.9.7c-.4.1-.4.7 0 .8l1.9.7c.5.2.8.5 1 1l.7 1.9c.1.4.7.4.8 0l.7-1.9c.2-.5.5-.8 1-1l1.9-.7c.4-.1.4-.6 0-.8zM359 108.2l-2.5-.9c-.6-.2-1.1-.7-1.3-1.3l-.9-2.5c-.2-.5-.9-.5-1.1 0l-.9 2.5c-.2.6-.7 1.1-1.3 1.3l-2.5.9c-.5.2-.5.9 0 1.1l2.5.9c.6.2 1.1.7 1.3 1.3l.9 2.5c.2.5.9.5 1.1 0l.9-2.5c.2-.6.7-1.1 1.3-1.3l2.5-.9c.5-.2.5-.9 0-1.1zM408.6 76.5l-3.9-.8c-1-.2-1.7-1-2-2l-.8-3.9c-.2-.9-1.4-.9-1.6 0l-.8 3.9c-.2 1-1 1.7-2 2l-3.9.8c-.9.2-.9 1.4 0 1.6l3.9.8c1 .2 1.7 1 2 2l.8 3.9c.2.8 1.4.8 1.6 0l.8-3.9c.2-1 1-1.7 2-2l3.9-.8c.9-.2.9-1.4 0-1.6zM392 92.9c.5-.5 0-1.3-.6-1.1l-4.4 1.3c-.4.1-.7-.1-.8-.5l-1-4.5c-.2-.7-1.1-.7-1.3 0l-1 4.5c-.1.4-.5.6-.8.5l-4.4-1.3c-.7-.2-1.2.6-.6 1.1l3.3 3.1c.3.3.3.7 0 1l-3.3 3.1c-.5.5 0 1.3.6 1.1l4.4-1.3c.4-.1.7.1.8.5l1 4.5c.2.7 1.1.7 1.3 0l1-4.5c.1-.4.5-.6.8-.5l4.4 1.3c.7.2 1.2-.6.6-1.1l-3.3-3.1c-.3-.3-.3-.7 0-1l3.3-3.1zM366.6 81.7l10.1-1.2c.8-.1.8-1.2 0-1.3L366.6 78c-.4 0-.7-.5-.5-.9l1.6-3c.3-.6-.4-1.4-1-1l-3 1.6c-.4.2-.8 0-.9-.5l-1.2-10.1c-.1-.8-1.2-.8-1.3 0l-1.2 10.1c0 .4-.5.7-.9.5l-3-1.6c-.6-.4-1.4.4-1 1l1.6 3c.2.4 0 .8-.5.9l-10.1 1.2c-.8.1-.8 1.2 0 1.3l10.1 1.2c.4 0 .7.5.5.9l-1.6 3c-.4.6.4 1.4 1 1l3-1.6c.4-.2.8 0 .9.5l1.2 10.1c.1.8 1.2.8 1.3 0l1.2-10.1c0-.4.5-.7.9-.5l3 1.6c.6.3 1.4-.4 1-1l-1.6-3c-.2-.4 0-.8.5-.9z"/><circle class="dst0" cx="481.5" cy="85" r="2.1"/><circle class="dst0" cx="412.9" cy="89.1" r="2.1"/><circle class="dst0" cx="379.4" cy="70.5" r="3.6"/><path class="dst0" d="M122.1 84.2l-2.4-.9c-.6-.2-1.1-.7-1.3-1.3l-.9-2.4c-.2-.5-.9-.5-1 0l-.9 2.4c-.2.6-.7 1.1-1.3 1.3l-2.4.9c-.5.2-.5.9 0 1.1l2.4.9c.6.2 1.1.7 1.3 1.3l.9 2.4c.2.5.9.5 1 0l.9-2.4c.2-.6.7-1.1 1.3-1.3l2.4-.9c.4-.2.4-.9 0-1.1zM55.4 76.2l-2.4-.8c-.6-.2-1.1-.7-1.3-1.3l-.9-2.4c-.2-.5-.9-.5-1 0l-.9 2.4c-.2.6-.7 1.1-1.3 1.3l-2.4.9c-.5.2-.5.9 0 1.1l2.4.9c.6.2 1.1.7 1.3 1.3l.9 2.4c.2.5.9.5 1 0l.9-2.4c.2-.6.7-1.1 1.3-1.3l2.4-.9c.4-.3.4-1 0-1.2zM88.3 76.2l-4.1-.9c-1-.2-1.8-1-2-2l-.9-4.1c-.2-.9-1.5-.9-1.6 0l-.9 4.1c-.2 1-1 1.8-2 2l-4.1.9c-.9.2-.9 1.5 0 1.6l4.1.9c1 .2 1.8 1 2 2l.9 4.1c.2.9 1.5.9 1.6 0l.9-4.1c.2-1 1-1.8 2-2l4.1-.9c.9-.2.9-1.4 0-1.6zM149 72l-4.1-.9c-1-.2-1.8-1-2-2L142 65c-.2-.9-1.5-.9-1.6 0l-.9 4.1c-.2 1-1 1.8-2 2l-4.1.9c-.9.2-.9 1.5 0 1.6l4.1.9c1 .2 1.8 1 2 2l.9 4.1c.2.9 1.5.9 1.6 0l.9-4.1c.2-1 1-1.8 2-2l4.1-.9c.9-.1.9-1.4 0-1.6zM107.8 92.3c.7-.6 0-1.7-.8-1.5l-5.7 1.7c-.5.1-1-.1-1.1-.6l-1.4-5.8c-.2-.9-1.5-.9-1.7 0l-1.4 5.8c-.1.5-.6.8-1.1.6L89 90.8c-.9-.3-1.5.8-.8 1.5l4.3 4.1c.4.3.4.9 0 1.3l-4.3 4.1c-.7.6 0 1.7.8 1.5l5.7-1.7c.5-.1 1 .1 1.1.6l1.4 5.8c.2.9 1.5.9 1.7 0l1.4-5.8c.1-.5.6-.8 1.1-.6l5.7 1.7c.9.3 1.5-.8.8-1.5l-4.3-4.1c-.4-.3-.4-.9 0-1.3l4.2-4.1z"/><circle class="dst0" cx="28.7" cy="69.7" r="2.2"/><circle class="dst0" cx="125.7" cy="68.2" r="2.2"/><circle class="dst0" cx="66.4" cy="90" r="3.2"/><circle class="dst0" cx="138.1" cy="96.2" r="3.7"/><path class="dst0" d="M228.1 97.4c3 3.2 6.6 5.2 10.1 6.4.4-5.5.3-7.4.4-10.2-5.4.4-8.6 1.2-10 1.9-1.6.7-.5 1.9-.5 1.9z"/><path class="dst0" d="M302.5 50h-110c-4.7 0-8.5 3.8-8.5 8.5v63.1c0 4.7 3.8 8.5 8.5 8.5h110.1c4.7 0 8.5-3.8 8.5-8.5V58.4c-.1-4.6-3.9-8.4-8.6-8.4zm-31.8 46c-.3 3.6-1.7 9.7-11.5 12.7-6.5 2-12.6 1-16 .2-.1 1.3-.2 1.9-.4 2.1-.3.3-2.4 1.5-3.6-.2-.5-.8-.8-2.3-.9-3.6-7.5-3.5-11-8.5-11.1-8.7-.2-.2-1.9-2-.2-4.2 1.6-2 6.9-4 11.6-4.8.2-4.1.6-7.1 1.2-8.5.7-1.6 1.5-.2 2.3.9.6.8 1 4.4 1 7.2 3.1-.1 4.9.1 8.4.7 4.5.8 7.5 3.1 7.3 5.7-.2 2.6-2.6 3.6-3.4 3.7-.9.1-2.4-.6-2.4-.6-1-.5-.1-.9 1.1-1.4 1.3-.6 1-1.3 1-1.3-.5-1.4-6.3-2.4-12.2-2.4 0 3.2.1 8.5.2 11.6 4.1.8 7.1.6 7.1.6s14.9-.4 15.3-9.9c.5-9.5-14.8-18.6-26.1-21.5-11.3-3-17.7-.9-18.2-.6-.6.3 0 .4 0 .4s.6.1 1.7.5.2.9.2.9c-1.9.6-4.1.2-4.5-.6-.4-.9.3-1.7 1.1-2.8.8-1.2 1.7-1.2 1.7-1.2 14-4.8 31 3.9 31 3.9 15.9 8 18.6 17.5 18.3 21.2z"/></svg><svg width="215.801" height="176.806" viewBox="0 0 215.801 176.806" id="icon-shopping-bag" y="176.8"><defs><path id="ea" d="M0 0h215.801v176.806H0z"/></defs><clipPath id="eb"><use xlink:href="#ea" overflow="visible"/></clipPath><path clip-path="url(#eb)" fill="#00437B" d="M131.781 57.334h-8.63v-9.939c0-7.815-6.358-14.174-14.174-14.174S94.804 39.58 94.804 47.395v9.025h-8.63v-9.025c0-12.575 10.23-22.805 22.803-22.805s22.804 10.23 22.804 22.805v9.939zM67.473 141.992h83.009V61.839H67.473v80.153zm65.401-34.792c-.272 3.506-1.619 9.414-11.18 12.325-6.307 1.898-12.258.989-15.515.162-.069 1.291-.213 1.838-.42 2.061-.269.273-2.332 1.468-3.463-.223-.508-.798-.762-2.253-.909-3.535-7.308-3.357-10.674-8.21-10.797-8.425-.162-.155-1.822-1.895-.162-4.035 1.566-1.928 6.68-3.849 11.293-4.632.159-3.937.621-6.914 1.172-8.274.662-1.581 1.503-.151 2.235.908.612.793.973 4.228 1.003 6.979 3.008-.14 4.798.078 8.157.687 4.378.796 7.302 3.03 7.047 5.569-.19 2.485-2.481 3.519-3.349 3.59-.919.079-2.334-.573-2.334-.573-.977-.462-.076-.865 1.097-1.385 1.271-.625.987-1.261.987-1.261-.475-1.386-6.158-2.362-11.813-2.367-.022 3.122.129 8.296.208 11.309 3.958.756 6.915.615 6.915.615s14.431-.4 14.869-9.623c.446-9.234-14.4-18.087-25.365-20.901-10.961-2.874-17.158-.865-17.691-.588-.581.291-.039.382-.039.382s.59.086 1.627.44c1.092.347.24.907.24.907-1.867.592-3.976.217-4.375-.631-.409-.849.268-1.619 1.051-2.725.78-1.154 1.639-1.122 1.639-1.122 13.553-4.691 30.064 3.79 30.064 3.79 15.463 7.82 18.09 17.012 17.808 20.576"/><path clip-path="url(#eb)" fill="#00437B" d="M91.489 108.567c2.883 3.103 6.44 5.05 9.813 6.252.396-5.352.337-7.233.37-9.931-5.274.362-8.317 1.203-9.705 1.832-1.539.748-.478 1.847-.478 1.847"/></svg></svg>